<svg width="10" height="10" viewBox="0 0 10 10" fill="none" xmlns="http://www.w3.org/2000/svg">
<path d="M5 10C7.76145 10 10 7.76142 10 5C10 2.23858 7.76145 0 5 0C2.23855 0 0 2.23858 0 5C0 7.76142 2.23855 10 5 10Z" fill="#B7772D"/>
<path d="M5.00494 9.39756C3.82964 9.39756 2.72406 8.94081 1.89737 8.10991C1.06544 7.27886 0.602107 6.16177 0.60753 5.00009C0.60753 3.82419 1.0657 2.72118 1.89737 1.89028C2.3009 1.48338 2.78418 1.15982 3.31847 0.938848C3.85275 0.717876 4.42713 0.604004 5.00743 0.604004C5.58773 0.604004 6.16211 0.717876 6.69639 0.938848C7.23068 1.15982 7.71396 1.48338 8.11749 1.89028C9.83064 3.60553 9.83064 6.39465 8.11749 8.10991C7.28084 8.94081 6.17526 9.39756 5.00494 9.39756ZM4.99996 1.20029C4.02885 1.20029 3.05275 1.56958 2.3157 2.31302C1.59862 3.03191 1.19978 3.99694 1.20514 5.00009C1.20514 6.01564 1.59857 6.96802 2.3157 7.68717C2.66341 8.03927 3.08035 8.3193 3.54158 8.5105C4.00281 8.7017 4.49883 8.80013 4.99996 8.7999C6.0159 8.7999 6.96709 8.40631 7.68422 7.68717C9.16331 6.20514 9.16331 3.79504 7.68422 2.31302C7.33687 1.96046 6.91999 1.68013 6.45868 1.4889C5.99737 1.29767 5.50118 1.1995 4.99996 1.20029Z" fill="#FFF3E6"/>
<path d="M5.30379 3.03179L5.71713 3.86755C5.76693 3.96473 5.86156 4.03762 5.97112 4.0522L6.89243 4.18825C7.16634 4.22713 7.28088 4.56726 7.07669 4.76162L6.43924 5.38359C6.34462 5.47591 6.31474 5.61196 6.35458 5.7383L6.64841 6.56921C6.74801 6.84617 6.46913 7.10856 6.19522 6.99195L5.12948 6.52547C5.08737 6.50635 5.04148 6.49644 4.99502 6.49644C4.94857 6.49644 4.90268 6.50635 4.86056 6.52547L3.79482 6.99195C3.5259 7.10856 3.24203 6.84617 3.34164 6.56921L3.63546 5.7383C3.68028 5.61196 3.64542 5.47591 3.5508 5.38359L2.91335 4.76162C2.71415 4.56726 2.82371 4.22713 3.09761 4.18825L4.01893 4.0522C4.12849 4.03762 4.22311 3.96959 4.27291 3.86755L4.68626 3.03179C4.82072 2.77912 5.17928 2.77912 5.30379 3.03179Z" fill="#FFF3E6"/>
</svg>
